<?xml version="1.0" standalone="no"?>
<!DOCTYPE svg PUBLIC "-//W3C//DTD SVG 20010904//EN"
 "http://www.w3.org/TR/2001/REC-SVG-20010904/DTD/svg10.dtd">
<svg version="1.0" xmlns="http://www.w3.org/2000/svg"
 width="736.000000pt" height="785.000000pt" viewBox="0 0 736.000000 785.000000"
 preserveAspectRatio="xMidYMid meet">

<g transform="translate(0.000000,785.000000) scale(0.100000,-0.100000)"
fill="#000000" stroke="none">
<path d="M3575 7844 c-16 -2 -58 -7 -92 -10 l-61 -5 -8 -87 c-4 -48 1 -568 11
-1157 16 -890 17 -1118 7 -1355 -12 -271 -23 -385 -41 -418 -8 -14 -16 594
-28 2072 l-6 869 -154 -6 c-813 -34 -1332 -373 -1624 -1061 -144 -341 -230
-717 -339 -1486 -66 -460 -73 -486 -168 -627 -213 -319 -676 -1373 -885 -2018
-95 -293 -148 -508 -173 -702 l-16 -122 32 -55 c117 -206 499 -676 549 -676
16 0 49 144 106 465 38 214 78 385 157 675 311 1140 696 1821 1158 2047 110
54 181 72 310 80 232 13 443 -68 648 -248 100 -87 129 -118 309 -325 212 -243
287 -299 398 -298 114 1 217 76 411 297 148 169 317 340 394 398 156 118 308
172 480 171 396 -1 734 -246 1028 -742 279 -473 548 -1308 707 -2195 20 -110
44 -231 53 -269 l18 -70 173 195 c207 232 346 402 396 484 36 59 36 61 30 135
-42 470 -372 1433 -750 2190 -114 228 -181 345 -298 519 -138 207 -137 202
-197 651 -84 622 -144 953 -226 1237 -170 594 -433 946 -859 1153 -242 117
-536 183 -881 197 l-152 6 -6 -344 c-3 -189 -11 -850 -17 -1469 -6 -619 -13
-1127 -14 -1129 -9 -9 -25 88 -35 209 -15 177 -15 1074 0 1830 6 327 10 680 8
785 l-3 189 -35 8 c-43 9 -274 18 -315 12z m1535 -3155 c218 -56 580 -236 725
-362 22 -19 38 -37 35 -40 -10 -11 -153 52 -298 131 -168 91 -289 142 -418
174 -127 32 -393 32 -539 0 -134 -29 -233 -62 -364 -122 -59 -28 -112 -50
-117 -50 -19 0 76 85 141 125 243 152 577 210 835 144z m-2445 5 c202 -35 395
-120 503 -222 51 -48 54 -53 29 -47 -15 3 -90 32 -165 64 -164 71 -212 85
-361 111 -141 25 -330 26 -439 4 -101 -21 -178 -53 -375 -160 -155 -85 -292
-144 -367 -159 l-35 -7 35 31 c66 59 267 187 381 243 251 123 374 157 569 157
79 1 172 -6 225 -15z"/>
<path d="M2172 4190 c-488 -128 -914 -822 -1240 -2020 -64 -235 -129 -533
-185 -842 -8 -43 -13 -78 -12 -78 0 0 60 24 132 54 72 30 182 70 244 90 421
130 705 156 799 71 9 -8 59 -139 111 -292 l94 -277 55 -34 c30 -18 165 -96
300 -173 135 -78 286 -164 335 -193 314 -184 846 -486 856 -486 12 0 1503 854
1530 877 9 8 58 136 109 286 51 150 98 278 104 286 6 8 31 23 56 34 145 66
629 -31 1038 -207 46 -20 86 -36 88 -36 2 0 1 12 -1 28 -199 1105 -493 1946
-861 2464 -81 113 -252 283 -348 346 -120 78 -226 113 -361 119 -211 10 -393
-58 -587 -219 -80 -67 -150 -138 -317 -321 -248 -272 -375 -346 -522 -303
-113 32 -205 111 -449 380 -249 276 -438 407 -649 452 -93 19 -231 17 -319 -6z
m297 -61 c280 -64 597 -324 870 -713 22 -33 41 -63 41 -67 0 -16 -141 -21
-278 -10 -342 29 -755 130 -990 242 -97 47 -135 90 -152 176 -22 105 10 219
85 301 87 97 215 119 424 71z m2696 4 c64 -21 145 -96 176 -166 19 -42 24 -69
24 -142 0 -133 -31 -183 -151 -243 -212 -106 -666 -217 -998 -244 -132 -10
-276 -5 -276 10 0 4 29 47 65 97 252 351 517 577 780 664 151 50 272 57 380
24z m195 -712 c0 -18 -118 -166 -194 -244 -126 -129 -259 -177 -494 -177 -142
0 -276 21 -397 61 -83 28 -192 86 -181 96 2 3 60 -7 128 -22 165 -35 360 -49
508 -35 232 22 328 63 484 210 62 57 136 120 144 120 1 0 2 -4 2 -9z m-3210
-128 c97 -87 205 -149 300 -171 182 -42 410 -40 629 8 80 17 152 29 160 28 24
-5 -134 -83 -224 -111 -122 -38 -218 -52 -355 -50 -196 1 -351 51 -459 149
-52 46 -201 236 -201 255 0 18 54 -21 150 -108z m1667 -105 c46 -17 160 -104
150 -114 -2 -2 -48 10 -103 27 -150 47 -222 48 -364 6 -63 -19 -117 -33 -120
-30 -9 8 73 72 127 99 94 47 205 51 310 12z m-53 -152 c31 -13 110 -75 103
-82 -1 -2 -36 6 -77 16 -96 25 -146 25 -238 -1 -40 -11 -76 -18 -79 -16 -6 7
78 64 120 82 41 18 128 19 171 1z m1672 -148 c-34 -49 -252 -259 -274 -265
-28 -7 -78 -1 -202 26 -190 41 -429 49 -570 20 -56 -12 -130 -38 -130 -47 0
-4 28 -18 63 -31 86 -33 187 -102 248 -169 125 -140 246 -501 266 -796 3 -50
3 -89 0 -86 -3 3 -29 87 -56 185 -63 229 -100 335 -161 460 -91 187 -171 261
-383 350 -65 28 -127 58 -138 69 -21 18 -21 18 6 46 54 57 207 103 392 121
140 13 315 0 488 -36 188 -39 182 -41 317 77 43 38 132 97 146 98 2 0 -4 -10
-12 -22z m-3403 -75 c140 -105 164 -115 236 -97 224 57 383 68 609 43 175 -19
332 -66 370 -112 28 -33 -14 -61 -199 -137 -141 -57 -241 -161 -337 -348 -66
-128 -103 -237 -141 -409 -17 -78 -37 -157 -45 -175 -14 -33 -14 -32 -15 42
-1 92 19 219 59 369 58 221 143 386 247 481 48 44 173 114 258 144 20 7 20 8
1 21 -41 30 -166 49 -326 48 -173 0 -270 -11 -442 -49 -76 -17 -122 -23 -133
-17 -8 5 -63 56 -121 114 -179 176 -187 208 -21 82z m1732 -242 c88 -40 144
-126 145 -222 0 -62 -13 -110 -42 -152 -19 -27 -19 -27 2 -55 35 -44 923 -933
929 -929 52 29 91 39 148 35 l62 -4 44 96 c24 52 120 261 212 463 92 202 170
366 172 363 4 -4 -330 -1195 -346 -1231 -5 -11 -79 -60 -167 -110 -88 -49
-406 -230 -707 -402 l-548 -312 -357 203 c-196 112 -512 292 -702 401 -190
108 -350 202 -356 208 -6 7 -22 55 -37 107 -14 52 -94 333 -176 624 -83 292
-149 531 -148 533 2 1 101 -210 221 -470 l218 -473 63 4 c54 4 71 0 109 -21
l45 -25 122 127 c67 69 271 277 453 461 183 184 340 345 350 357 17 21 17 22
-8 60 -36 54 -52 136 -37 190 41 151 203 235 336 174z"/>
<path d="M3619 2520 c-75 -22 -129 -96 -129 -174 0 -133 127 -221 247 -171 50
21 72 42 94 90 66 143 -65 300 -212 255z"/>
<path d="M3563 2092 c-10 -11 -13 -111 -13 -508 l0 -494 120 0 120 0 0 494 c0
426 -2 495 -15 506 -21 18 -194 19 -212 2z"/>
<path d="M3287 1811 l-117 -119 0 -301 0 -301 120 0 120 0 0 420 c0 231 -2
420 -3 420 -2 0 -56 -54 -120 -119z"/>
<path d="M3936 1859 c-4 -35 -5 -221 -4 -414 l3 -350 118 -3 117 -3 0 303 0
303 -114 114 -114 114 -6 -64z"/>
<path d="M2907 1422 l-117 -117 0 -108 0 -107 120 0 120 0 0 225 c0 124 -1
225 -3 225 -1 0 -55 -53 -120 -118z"/>
<path d="M4320 1316 l0 -226 120 0 120 0 0 103 -1 102 -119 124 -120 124 0
-227z"/>
<path d="M2338 1185 c-93 -51 -88 -207 7 -255 40 -19 107 -17 140 4 86 56 87
195 2 246 -38 24 -110 26 -149 5z m130 -42 c66 -42 58 -144 -15 -178 -44 -21
-85 -12 -118 27 -46 55 -28 135 39 164 33 14 57 11 94 -13z"/>
<path d="M4865 1188 c-60 -33 -93 -99 -80 -160 10 -45 61 -96 107 -109 33 -9
49 -7 84 6 148 56 110 276 -47 275 -24 0 -53 -6 -64 -12z m99 -32 c69 -29 88
-108 41 -164 -32 -38 -72 -48 -119 -28 -93 39 -80 174 19 199 11 2 21 5 23 6
1 0 18 -5 36 -13z"/>
<path d="M2592 992 c-5 -16 -24 -45 -41 -64 -17 -20 -31 -38 -31 -42 0 -3 518
-6 1150 -6 633 0 1150 4 1150 8 0 5 -12 19 -26 33 -14 13 -35 41 -45 62 l-19
37 -1064 0 -1064 0 -10 -28z"/>
<path d="M2775 800 l-140 -5 495 -279 c272 -154 504 -285 515 -293 22 -13 -38
-46 798 429 136 78 245 143 243 145 -6 6 -1747 9 -1911 3z"/>
</g>
</svg>
