<?xml version="1.0" standalone="no"?>
<!DOCTYPE svg PUBLIC "-//W3C//DTD SVG 20010904//EN"
 "http://www.w3.org/TR/2001/REC-SVG-20010904/DTD/svg10.dtd">
<svg version="1.0" xmlns="http://www.w3.org/2000/svg"
 width="650.000000pt" height="1009.000000pt" viewBox="0 0 650.000000 1009.000000"
 preserveAspectRatio="xMidYMid meet">

<g transform="translate(0.000000,1009.000000) scale(0.100000,-0.100000)"
fill="#000000" stroke="none">
<path d="M2597 10079 c-65 -4 -154 -17 -199 -29 -108 -28 -443 -151 -543 -200
-289 -140 -635 -464 -825 -775 -128 -207 -243 -518 -292 -785 -17 -93 -21
-157 -22 -335 -1 -285 21 -417 114 -699 22 -65 40 -126 40 -136 0 -24 0 -23
-220 -60 -200 -33 -254 -53 -328 -116 -58 -49 -86 -103 -113 -214 -40 -168
-37 -539 7 -890 8 -63 21 -191 29 -284 17 -185 32 -257 76 -358 25 -58 29 -78
29 -160 -1 -51 -6 -113 -11 -138 -16 -64 -22 -147 -14 -177 3 -15 41 -63 84
-107 43 -45 84 -92 91 -105 19 -37 54 -733 40 -795 -8 -37 -39 -91 -92 -163
-25 -34 -33 -55 -36 -104 -4 -54 0 -69 32 -139 31 -66 38 -93 43 -167 7 -113
-11 -182 -65 -244 -50 -56 -62 -80 -62 -119 0 -38 11 -59 107 -212 80 -128 82
-140 22 -152 -16 -3 -40 -17 -52 -30 -13 -13 -116 -207 -231 -431 l-208 -407
4 -56 c5 -65 56 -177 116 -257 76 -100 1029 -952 1090 -974 38 -14 45 -13 273
59 257 80 783 256 951 318 126 46 152 62 173 102 27 52 86 273 80 300 -3 15
-46 63 -105 118 -55 51 -100 98 -100 103 0 5 15 32 34 59 60 88 72 215 25 274
-24 30 -44 143 -89 486 -17 129 -37 280 -45 335 -7 55 -12 101 -11 103 2 1 74
-49 161 -113 151 -110 218 -145 279 -145 12 0 218 48 459 106 274 66 447 104
463 100 25 -7 106 -109 232 -295 l64 -95 -38 -13 c-53 -19 -64 -31 -149 -164
-41 -64 -161 -249 -266 -411 -227 -347 -237 -365 -220 -428 16 -58 55 -145 88
-193 37 -53 247 -206 693 -504 74 -49 222 -151 329 -227 150 -105 201 -136
225 -136 18 0 95 23 171 51 77 28 334 120 570 206 237 85 449 166 473 180 24
13 52 39 63 56 33 54 79 212 79 272 0 54 0 54 -133 232 -218 290 -417 604
-417 657 0 33 -14 27 317 126 428 126 554 175 595 230 24 33 68 193 68 250 0
55 -15 80 -136 237 -50 65 -182 249 -294 408 -156 222 -204 297 -203 320 0 30
142 412 168 451 8 12 34 35 59 50 53 34 62 57 48 122 -49 230 -293 1159 -377
1442 -58 195 -104 364 -103 375 2 16 27 28 125 61 131 44 146 52 169 96 24 47
62 322 75 544 23 411 -1 806 -62 1018 -96 337 -271 583 -465 655 -75 29 -125
26 -302 -14 -113 -25 -159 -32 -173 -25 -19 11 -40 72 -127 380 -77 271 -78
263 12 300 30 12 57 27 59 34 6 14 -7 83 -49 263 -24 107 -26 112 -56 122 -17
6 -74 11 -125 11 -115 0 -92 -20 -322 279 -177 229 -361 438 -429 485 -39 28
-48 30 -184 37 -138 6 -147 8 -258 52 -141 55 -236 82 -360 101 -118 18 -436
26 -593 15z m806 -175 c40 -9 76 -19 80 -23 4 -4 -12 -13 -35 -20 -67 -20
-172 -70 -185 -88 -25 -33 -14 -61 48 -124 82 -85 135 -169 163 -259 32 -100
53 -227 40 -240 -5 -5 -79 -19 -164 -30 -188 -25 -336 -55 -356 -71 -8 -6 -14
-18 -14 -27 0 -9 46 -131 101 -271 122 -308 139 -356 139 -393 0 -27 -2 -28
-45 -28 -31 0 -51 6 -65 20 -10 10 -38 79 -60 152 -136 440 -160 501 -202 506
-26 3 -210 -52 -670 -199 -407 -130 -624 -217 -716 -286 -28 -21 -32 -29 -32
-73 0 -93 51 -413 106 -672 6 -25 2 -30 -36 -47 -24 -11 -49 -17 -56 -14 -31
12 -51 108 -99 473 -31 242 -33 250 -52 250 -9 0 -112 -52 -230 -116 -117 -64
-216 -115 -218 -112 -16 16 64 341 119 486 83 217 232 448 396 613 88 90 126
109 487 256 462 186 758 271 1127 323 237 33 331 36 429 14z m504 -190 c156
-74 303 -374 197 -400 -30 -8 -97 10 -113 30 -15 17 -17 41 -7 82 6 25 2 37
-17 60 -14 18 -27 49 -31 78 -13 101 -63 127 -188 101 -94 -19 -105 -19 -113
5 -11 35 11 58 67 68 72 14 143 5 205 -24z m83 -627 c129 4 244 7 255 7 74 -5
137 -18 150 -30 22 -22 18 -51 -7 -61 -13 -4 -142 -6 -288 -5 -146 2 -286 0
-312 -4 -53 -7 -59 -20 -33 -70 9 -18 11 -32 5 -38 -12 -12 -110 -32 -232 -48
-97 -12 -98 -12 -123 12 -32 30 -69 144 -55 169 6 13 44 25 137 44 163 33 169
34 223 24 25 -5 151 -5 280 0z m-187 -279 c21 -17 89 -192 81 -212 -3 -9 -16
-18 -28 -21 -173 -42 -283 -61 -303 -52 -25 11 -108 189 -99 213 7 19 9 19
161 53 153 34 166 35 188 19z m1006 -507 c21 -21 40 -127 25 -141 -9 -8 -286
-50 -738 -110 -125 -17 -269 -40 -320 -51 -50 -11 -179 -38 -286 -60 -356 -73
-820 -202 -1165 -324 -301 -107 -840 -327 -1019 -416 -142 -71 -187 -89 -221
-89 -63 0 -95 15 -95 44 0 19 24 39 138 114 250 164 515 302 887 460 343 146
594 233 1095 376 125 36 527 120 722 151 162 26 627 63 801 64 142 1 159 -1
176 -18z m85 -244 c13 -9 44 -117 111 -387 51 -206 152 -593 223 -860 72 -267
151 -566 177 -665 115 -443 245 -903 366 -1300 127 -411 282 -994 273 -1020
-3 -7 -42 -25 -87 -39 -145 -45 -816 -233 -1037 -291 -118 -31 -325 -87 -460
-125 -135 -38 -369 -101 -520 -140 -151 -39 -394 -104 -540 -145 -146 -40
-384 -105 -530 -145 -146 -39 -359 -98 -474 -132 -179 -52 -210 -58 -222 -46
-26 26 -299 1067 -290 1104 6 24 17 29 192 104 133 57 154 72 154 108 0 40
-374 1369 -390 1385 -4 5 -26 -4 -49 -19 -40 -26 -42 -26 -56 -8 -47 62 -44
130 14 260 66 149 74 193 68 389 -4 147 -9 186 -35 290 -64 247 -154 373 -397
553 -71 53 -130 104 -130 112 0 21 251 145 535 264 243 102 712 276 743 276
21 0 29 -19 58 -127 11 -45 28 -88 36 -94 11 -10 52 0 206 49 106 34 234 73
286 87 232 64 741 186 853 204 189 32 490 71 620 81 65 5 122 12 128 15 17 11
11 67 -16 148 -24 73 -25 80 -10 95 26 26 171 40 200 19z m595 -133 c109 -55
269 -294 334 -500 39 -125 86 -377 97 -531 13 -176 -3 -680 -28 -872 -15 -116
-21 -136 -41 -152 -31 -26 -71 -25 -71 0 0 11 9 89 19 173 24 183 41 459 41
641 -1 374 -109 793 -265 1027 -25 38 -84 105 -131 149 -53 49 -80 81 -72 84
29 12 67 6 117 -19z m-190 -73 c54 -28 158 -144 210 -235 108 -189 161 -357
211 -671 17 -104 32 -201 35 -215 5 -32 -40 -589 -60 -733 -22 -162 -45 -186
-78 -86 -44 129 -159 607 -160 664 -7 408 -29 585 -94 749 -49 126 -63 152
-163 306 -95 147 -110 173 -110 190 0 18 81 50 128 50 23 0 60 -9 81 -19z
m-4183 -895 c136 -63 240 -221 319 -483 68 -223 105 -378 115 -483 16 -172 51
-1080 44 -1148 -5 -49 -11 -66 -28 -77 -11 -8 -76 -24 -144 -37 -107 -19 -124
-20 -132 -8 -6 8 -10 96 -10 195 -3 521 -30 917 -80 1166 -37 184 -149 487
-241 655 -21 39 -61 102 -90 140 l-50 69 73 16 c106 25 164 23 224 -5z m-465
-46 c20 -6 58 -29 83 -51 100 -88 177 -234 266 -504 95 -289 119 -402 139
-645 17 -202 52 -991 45 -1013 -4 -13 -48 -39 -131 -79 -69 -32 -127 -57 -129
-55 -3 2 -3 49 -2 103 l3 98 32 -49 32 -49 12 29 c13 33 -3 675 -22 901 -11
131 -22 157 -79 186 -45 23 -49 15 -51 -92 -1 -47 -4 -98 -8 -115 l-7 -30 -17
45 c-33 87 -117 365 -131 435 -8 38 -17 111 -21 160 -3 50 -11 107 -16 127
-11 42 -50 78 -86 78 -39 0 -82 -28 -90 -58 -3 -15 1 -106 10 -203 10 -97 15
-184 11 -193 -10 -26 -143 -101 -156 -88 -21 21 -39 229 -41 487 -2 223 1 270
16 331 36 138 100 215 200 240 66 16 93 16 138 4z m-209 -1364 c39 -46 43 -48
82 -43 23 3 48 8 57 12 15 6 17 -15 21 -222 5 -280 9 -290 135 -358 31 -17 56
-38 62 -54 6 -14 20 -245 31 -516 18 -423 55 -1013 76 -1191 l7 -55 26 25 c36
34 92 56 145 56 41 0 46 -3 52 -27 9 -37 23 -53 45 -53 25 0 292 80 303 91 16
14 2 19 -98 36 l-97 16 30 20 c17 10 31 23 31 28 0 5 -18 21 -41 36 -22 14
-49 43 -59 64 -14 27 -90 411 -90 454 0 3 -6 5 -14 5 -9 0 -19 -20 -26 -50 -7
-27 -16 -50 -20 -50 -9 0 -17 163 -24 491 -4 169 -2 230 7 243 18 25 337 101
353 84 9 -10 15 -142 23 -503 11 -476 27 -735 51 -786 12 -25 223 -186 373
-284 96 -63 136 -110 160 -191 20 -63 105 -536 157 -869 62 -399 68 -425 103
-458 l30 -28 24 28 c22 26 24 35 19 108 -3 44 -30 255 -61 469 -31 215 -55
404 -53 420 3 28 91 -434 119 -624 6 -41 26 -142 45 -225 38 -167 42 -226 18
-246 -13 -10 -21 -10 -47 0 -47 20 -125 36 -133 28 -4 -4 3 -29 16 -56 21 -47
22 -81 1 -81 -17 0 -135 85 -154 112 -15 20 -34 111 -78 370 -31 189 -69 404
-82 478 -14 74 -28 167 -32 205 -10 95 -16 105 -69 105 -60 0 -70 -15 -62 -94
11 -112 99 -644 172 -1041 2 -11 19 -39 39 -62 19 -23 35 -46 35 -52 0 -5 -64
21 -142 59 -241 118 -355 150 -432 120 -27 -10 -56 -56 -56 -90 0 -32 46 -45
88 -26 18 9 45 16 60 16 15 0 97 -34 182 -75 85 -41 189 -86 231 -100 102 -32
254 -58 304 -51 l40 5 -50 -24 c-63 -31 -81 -31 -268 1 -183 32 -266 30 -348
-8 -80 -37 -109 -68 -109 -117 0 -32 5 -44 24 -56 28 -19 51 -11 96 31 14 12
47 33 74 45 59 26 132 23 304 -11 164 -32 256 -27 379 22 64 25 97 19 118 -23
15 -28 15 -35 -1 -85 -37 -118 -98 -169 -262 -220 -59 -18 -285 -93 -502 -167
-217 -73 -425 -142 -462 -152 -65 -17 -68 -17 -102 1 -36 20 -737 664 -906
834 -116 116 -154 180 -155 262 0 53 8 72 102 260 155 307 261 501 287 524 13
12 52 27 86 35 34 7 64 19 67 26 8 21 -80 214 -145 317 -34 54 -62 104 -62
111 0 7 22 29 50 49 88 63 91 75 76 291 -4 61 -19 159 -33 218 -16 67 -23 121
-19 141 4 19 27 57 56 90 58 66 63 87 57 221 -15 342 -39 732 -50 800 l-12 80
-45 3 c-54 4 -72 18 -99 82 -21 49 -18 88 8 105 7 4 10 46 7 118 -3 105 -7
120 -50 237 -62 163 -76 226 -76 340 l1 95 20 -25 c11 -14 38 -47 61 -74z
m1332 -1746 c106 -382 189 -697 184 -698 -17 -7 -176 109 -262 190 -77 72 -89
89 -97 128 -20 106 -47 1166 -27 1105 5 -16 96 -343 202 -725z m4066 -195 c0
-19 -77 -209 -131 -321 -29 -61 -47 -87 -76 -106 -88 -57 -560 -210 -1363
-439 -845 -242 -1279 -349 -1422 -353 -52 -1 -60 2 -92 33 -41 40 -44 51 -16
51 26 0 25 10 -6 71 l-26 51 58 -31 c65 -35 84 -30 60 18 -48 92 -37 106 45
57 30 -17 75 -44 101 -59 l46 -27 10 58 c9 50 8 61 -9 88 -10 17 -19 34 -19
38 0 15 49 3 95 -24 63 -37 85 -39 85 -5 0 14 2 25 6 25 3 0 32 -18 64 -40
109 -74 107 -55 -10 97 -96 123 -98 133 -31 133 44 0 105 -47 206 -156 65 -71
105 -101 105 -78 0 6 -69 109 -127 188 -24 32 -43 62 -43 67 0 5 15 16 33 24
50 23 274 76 292 69 8 -4 34 -37 56 -75 23 -38 43 -69 45 -69 3 0 3 41 2 91
-2 65 1 93 9 96 7 3 38 -48 78 -126 36 -72 69 -131 74 -131 4 0 1 44 -6 98
-22 149 -22 181 3 201 25 20 594 184 621 179 14 -3 22 -25 39 -111 11 -59 24
-110 28 -114 15 -15 25 18 34 115 14 150 27 161 254 217 78 19 150 35 160 35
29 0 37 -30 28 -110 -13 -106 -12 -130 3 -130 7 0 19 17 26 38 28 77 114 262
122 262 13 0 11 -29 -15 -227 -8 -54 18 -40 48 26 14 32 26 64 26 70 0 20 41
95 69 124 39 43 90 65 199 87 53 11 113 24 132 29 19 5 56 9 83 10 36 1 47 -3
47 -14z m5 -579 c40 -43 480 -650 518 -713 37 -64 16 -174 -44 -234 -42 -42
-123 -71 -584 -210 -210 -63 -279 -80 -312 -76 -35 4 -78 30 -249 152 -250
179 -260 188 -284 236 -23 44 -25 78 -7 101 15 21 235 90 259 82 29 -9 21 -47
-15 -69 -29 -18 -32 -26 -33 -70 -1 -54 0 -54 -69 -41 -49 10 -45 -8 14 -65
83 -80 232 -117 352 -89 113 27 284 125 374 215 60 59 115 145 115 177 0 49
-37 35 -130 -48 -146 -130 -215 -183 -260 -199 -23 -8 -47 -15 -52 -15 -19 0
43 85 142 193 123 134 163 192 195 283 44 124 27 174 -61 174 l-45 0 7 -70 c6
-63 4 -75 -20 -124 -45 -92 -291 -336 -339 -336 -3 0 -7 75 -9 168 -5 174 -8
189 -71 332 -27 63 -8 84 128 135 83 31 96 31 143 1 20 -13 51 -27 69 -31 30
-6 153 12 153 22 0 3 -16 27 -36 54 l-35 49 28 26 c60 56 99 54 158 -10z
m-3588 -488 c-3 -7 -5 -2 -5 12 0 14 2 19 5 13 2 -7 2 -19 0 -25z m2493 -303
c3 -60 11 -120 18 -132 12 -22 246 -196 420 -312 125 -84 195 -157 289 -303
127 -198 367 -560 417 -627 54 -75 57 -97 22 -205 -43 -131 -32 -123 -321
-221 -110 -37 -315 -109 -455 -160 -372 -135 -408 -147 -433 -139 -12 4 -74
44 -137 89 -63 45 -232 160 -375 256 -143 96 -303 207 -355 245 -52 39 -120
86 -150 106 -95 60 -153 145 -167 243 -5 40 1 52 133 266 236 384 345 553 370
577 14 12 37 22 52 22 15 0 131 -30 257 -66 321 -91 359 -94 281 -21 -51 48
-59 93 -51 278 4 86 10 161 14 166 9 14 122 52 146 50 18 -2 20 -11 25 -112z"/>
<path d="M3512 9005 c-46 -13 -86 -26 -89 -29 -10 -10 32 -67 54 -72 29 -8
141 12 159 27 15 12 18 40 8 77 -8 28 -25 27 -132 -3z"/>
<path d="M3631 8720 c-35 -10 -72 -27 -83 -38 -18 -17 -19 -24 -9 -55 7 -20
20 -37 32 -40 11 -3 54 6 97 19 42 13 85 24 95 24 25 0 32 25 18 71 -11 36
-14 39 -49 38 -20 0 -66 -9 -101 -19z"/>
<path d="M4190 7684 c-74 -13 -225 -42 -335 -63 l-199 -40 -46 -50 c-58 -63
-93 -73 -276 -76 -77 -2 -161 -8 -185 -15 -85 -21 -441 -184 -457 -208 -14
-21 -13 -29 7 -90 12 -37 21 -72 21 -78 0 -6 9 -19 20 -29 17 -16 32 -17 118
-12 152 10 359 45 405 68 23 12 60 38 82 59 32 32 65 47 174 84 73 25 142 46
152 46 13 0 20 -10 25 -36 4 -19 13 -38 21 -41 13 -5 588 114 673 139 19 5 76
29 125 52 87 39 94 41 190 41 l100 0 3 34 c4 44 -46 208 -67 217 -17 7 -271
23 -361 23 -30 0 -116 -11 -190 -25z"/>
<path d="M4480 7155 c-133 -56 -208 -74 -220 -54 -5 7 -7 24 -3 36 5 21 1 23
-29 23 -18 0 -101 -18 -183 -40 -231 -63 -365 -96 -550 -135 -204 -44 -230
-54 -309 -118 -80 -64 -115 -81 -209 -100 -43 -9 -95 -24 -115 -34 -33 -16
-37 -22 -36 -53 3 -57 34 -164 52 -178 21 -17 82 -10 172 19 50 16 107 23 240
29 l175 8 325 91 c505 143 520 148 520 192 0 24 23 35 101 50 55 10 73 9 129
-6 103 -28 129 -28 230 -1 129 36 177 54 184 71 6 17 -19 157 -35 198 -7 15
-20 32 -30 37 -10 6 -82 10 -161 9 l-143 0 -105 -44z"/>
<path d="M2040 7075 c-171 -47 -200 -62 -200 -109 0 -60 682 -2563 723 -2653
5 -13 18 -25 28 -28 10 -3 88 15 173 40 252 74 256 76 256 121 0 12 -60 235
-134 495 -74 261 -200 713 -280 1004 -80 292 -187 674 -238 850 l-93 320 -35
2 c-19 1 -109 -18 -200 -42z"/>
<path d="M4355 6564 c-157 -38 -529 -145 -542 -156 -15 -12 -17 -70 -4 -113 5
-17 109 -376 231 -800 121 -423 226 -781 233 -795 20 -42 58 -37 314 44 131
41 279 87 328 101 114 35 119 38 111 93 -7 54 -191 678 -335 1137 -60 193
-117 377 -126 409 -19 66 -53 106 -87 105 -13 0 -68 -12 -123 -25z m76 -190
c64 -32 108 -121 134 -271 31 -178 14 -272 -58 -324 -52 -38 -154 -69 -224
-69 -98 0 -145 38 -204 163 -31 66 -79 258 -79 315 0 65 65 152 129 174 114
38 242 43 302 12z m195 -829 c91 -27 128 -88 185 -310 48 -185 -16 -315 -181
-366 -81 -25 -141 -19 -204 21 -80 51 -120 139 -161 361 -16 83 -16 102 -5
129 34 83 184 177 286 179 17 1 53 -6 80 -14z"/>
<path d="M5070 4333 c-25 -8 -157 -45 -294 -83 -137 -38 -253 -73 -258 -78
-10 -10 175 -646 194 -669 14 -17 -9 -22 317 66 145 39 266 71 267 71 2 0 8 9
14 20 9 16 -3 73 -54 273 -110 426 -109 424 -186 400z"/>
<path d="M3110 4200 c-14 -4 -180 -51 -368 -104 -189 -52 -355 -102 -369 -112
-23 -15 -25 -21 -20 -68 11 -103 198 -849 238 -948 6 -15 20 -30 30 -33 18 -6
311 71 679 179 l185 54 -3 38 c-2 22 -10 62 -18 89 -9 28 -66 236 -129 463
-67 245 -120 421 -131 433 -18 20 -51 23 -94 9z"/>
<path d="M4220 4119 c-107 -33 -485 -141 -663 -190 -95 -25 -121 -36 -129 -54
-8 -17 6 -80 67 -296 42 -151 83 -294 89 -318 7 -25 20 -49 28 -55 12 -7 116
18 385 93 468 131 557 160 561 184 2 10 -12 75 -32 145 -19 70 -58 210 -87
312 -28 102 -56 191 -61 198 -15 18 -53 14 -158 -19z"/>
<path d="M1618 2995 c-3 -3 -3 -189 0 -414 l5 -408 -57 -22 c-73 -27 -85 -26
-131 5 -35 24 -45 25 -101 19 l-62 -6 -50 53 c-27 29 -100 109 -162 178 -158
174 -232 252 -237 247 -24 -24 -29 -377 -6 -384 7 -3 26 21 43 51 18 31 37 56
44 56 13 0 205 -157 274 -223 23 -23 42 -48 42 -57 0 -8 -11 -33 -25 -55 -31
-50 -31 -83 -1 -143 13 -26 45 -101 72 -167 60 -149 68 -163 107 -170 67 -13
167 26 167 63 0 14 -78 229 -114 313 -8 20 -11 41 -6 49 5 7 68 25 150 40 138
27 160 36 160 70 0 31 -51 550 -70 713 -11 93 -20 175 -20 183 0 14 -12 19
-22 9z"/>
<path d="M557 2128 c-36 -48 -104 -178 -208 -398 -74 -156 -92 -205 -93 -243
l-1 -47 150 -148 c154 -151 492 -465 602 -560 38 -34 68 -52 80 -50 10 2 17
10 15 17 -1 7 -18 245 -37 529 -19 284 -40 538 -46 563 -6 27 -22 57 -37 72
-72 67 -369 297 -384 297 -9 0 -28 -15 -41 -32z"/>
<path d="M4760 1838 c0 -50 -4 -66 -22 -85 l-22 -23 52 -163 c28 -89 63 -205
77 -257 54 -197 253 -645 314 -707 l26 -25 3 37 c4 44 -38 165 -184 527 -57
142 -104 269 -104 283 0 14 7 36 15 49 14 21 12 33 -20 152 -40 146 -96 274
-120 274 -12 0 -15 -13 -15 -62z"/>
<path d="M4082 1823 c-26 -10 -288 -430 -389 -623 -53 -101 -53 -124 2 -176
19 -17 213 -152 431 -299 404 -272 413 -277 414 -220 0 30 -66 618 -101 890
-22 180 -34 246 -48 265 -23 32 -248 170 -276 169 -11 0 -26 -3 -33 -6z"/>
</g>
</svg>
